<svg width="140" height="40" viewBox="0 0 140 40" fill="none" xmlns="http://www.w3.org/2000/svg">
<path d="M26.18 5.6C24.64 3.08 21.84 1.4 18.76 1.4C13.72 1.4 9.8 5.32 9.8 10.36C9.8 15.4 13.72 19.32 18.76 19.32C21.84 19.32 24.64 17.64 26.18 15.12L28.98 16.8C26.74 20.44 22.82 22.68 18.76 22.68C11.76 22.68 6.16 17.08 6.16 10.08C6.16 3.08 11.76 -2.52 18.76 -2.52C22.82 -2.52 26.74 -0.28 28.98 3.36L26.18 5.6Z" fill="#F04E23"/>
<path d="M18.76 39.2C11.76 39.2 6.16 33.6 6.16 26.6C6.16 19.6 11.76 14 18.76 14C22.82 14 26.74 16.24 28.98 19.88L26.18 21.56C24.64 19.04 21.84 17.36 18.76 17.36C13.72 17.36 9.8 21.28 9.8 26.32C9.8 31.36 13.72 35.28 18.76 35.28C21.84 35.28 24.64 33.6 26.18 31.08L28.98 32.76C26.74 36.4 22.82 38.64 18.76 38.64V39.2Z" fill="#F04E23"/>
<path d="M2.8 10.08C2.8 5.6 4.76 1.4 8.12 -1.4L5.32 -3.08C1.12 0.56 -1.4 5.04 -1.4 10.08C -1.4 15.12 1.12 19.6 5.32 23.24L8.12 21.56C4.76 18.76 2.8 14.56 2.8 10.08Z" fill="#F04E23"/>
<text x="40" y="27" font-family="Arial, sans-serif" font-weight="bold" font-size="22" fill="#000">Hotmart</text>
</svg>